<mxfile host="www.draw.io" modified="2020-02-24T16:20:32.215Z" agent="Mozilla/5.0 (Macintosh; Intel Mac OS X 10_15_2) AppleWebKit/537.36 (KHTML, like Gecko) Chrome/79.0.3945.130 Safari/537.36" etag="Ukimuk-9VDwthBWbM1uo" version="12.7.4" type="github" pages="4">
  <diagram id="QQnw0R_1CDw4XtWBeqcM" name="Overview">
    <mxGraphModel dx="946" dy="613" grid="1" gridSize="10" guides="1" tooltips="1" connect="1" arrows="1" fold="1" page="1" pageScale="1" pageWidth="827" pageHeight="1169" math="0" shadow="0">
      <root>
        <mxCell id="0" />
        <mxCell id="1" parent="0" />
        <mxCell id="uF6Eo5S9P4kP6wU4TA38-1" value="&lt;p style=&quot;margin-left: 0 ; margin-right: 0 ; margin-top: 0px ; margin-bottom: 0px ; text-indent: 0 ; direction: ltr&quot;&gt;&lt;font style=&quot;font-size: 14px ; font-family: &amp;#34;lucida sans&amp;#34; ; color: #000000 ; direction: ltr ; letter-spacing: 0px ; line-height: 120% ; opacity: 1&quot;&gt;&lt;span style=&quot;text-align: center&quot;&gt;BusInMetropolis&lt;/span&gt;&lt;b&gt;&lt;br&gt;&lt;/b&gt;&lt;/font&gt;&lt;/p&gt;" style="verticalAlign=top;align=left;vsdxID=1;fillColor=#e4fdb0;gradientColor=none;shape=stencil(nZBLDoAgDERP0z3SIyjew0SURgSD+Lu9kMZoXLhwN9O+tukAlrNpJg1SzDH4QW/URgNYgZTkjA4UkwJUgGXng+6DX1zLfmoymdXo17xh5zmRJ6Q42BWCfc2oJfdAr+Yv+AP9Cb7OJ3H/2JG1HNGz/84klThPVCc=);strokeColor=#000000;strokeWidth=4;labelBackgroundColor=none;rounded=0;html=1;whiteSpace=wrap;" parent="1" vertex="1">
          <mxGeometry x="23" y="44" width="780" height="716" as="geometry" />
        </mxCell>
        <mxCell id="uF6Eo5S9P4kP6wU4TA38-2" value="&lt;p style=&quot;margin-left: 0 ; margin-right: 0 ; margin-top: 0px ; margin-bottom: 0px ; text-indent: 0 ; direction: ltr&quot;&gt;&lt;font style=&quot;font-size: 14px ; font-family: &amp;#34;lucida sans&amp;#34; ; color: #000000 ; direction: ltr ; letter-spacing: 0px ; line-height: 120% ; opacity: 1&quot;&gt;&lt;b&gt;BusInfo [and]&lt;/b&gt;&lt;/font&gt;&lt;/p&gt;" style="verticalAlign=top;align=left;vsdxID=9;fillColor=#e4fdb0;gradientColor=none;shape=stencil(nZBLDoAgDERP0z3SIyjew0SURgSD+Lu9kMZoXLhwN9O+tukAlrNpJg1SzDH4QW/URgNYgZTkjA4UkwJUgGXng+6DX1zLfmoymdXo17xh5zmRJ6Q42BWCfc2oJfdAr+Yv+AP9Cb7OJ3H/2JG1HNGz/84klThPVCc=);strokeColor=#000000;strokeWidth=4;labelBackgroundColor=none;rounded=0;html=1;whiteSpace=wrap;" parent="1" vertex="1">
          <mxGeometry x="256" y="197" width="517" height="273" as="geometry" />
        </mxCell>
        <mxCell id="uF6Eo5S9P4kP6wU4TA38-3" value="&lt;font style=&quot;font-size: 14px ; font-family: &amp;#34;lucida sans&amp;#34; ; color: #000000 ; direction: ltr ; letter-spacing: 0px ; line-height: 120% ; opacity: 1&quot;&gt;BusInMetropolis&lt;br&gt;&lt;/font&gt;" style="verticalAlign=middle;align=center;vsdxID=2;fillColor=#9ff7f7;gradientColor=none;shape=stencil(nZBLDoAgDERP0z3SIyjew0SURgSD+Lu9kMZoXLhwN9O+tukAlrNpJg1SzDH4QW/URgNYgZTkjA4UkwJUgGXng+6DX1zLfmoymdXo17xh5zmRJ6Q42BWCfc2oJfdAr+Yv+AP9Cb7OJ3H/2JG1HNGz/84klThPVCc=);strokeColor=#000000;labelBackgroundColor=none;rounded=0;html=1;whiteSpace=wrap;" parent="1" vertex="1">
          <mxGeometry x="243" y="135" width="124" height="35" as="geometry" />
        </mxCell>
        <mxCell id="uF6Eo5S9P4kP6wU4TA38-7" value="&lt;font style=&quot;font-size:14px;font-family:Lucida Sans;color:#000000;direction:ltr;letter-spacing:0px;line-height:120%;opacity:1&quot;&gt;provides&lt;br/&gt;&lt;/font&gt;" style="verticalAlign=middle;align=center;vsdxID=10;fillColor=none;gradientColor=none;shape=stencil(nZBLDoAgDERP0z3SIyjew0SURgSD+Lu9kMZoXLhwN9O+tukAlrNpJg1SzDH4QW/URgNYgZTkjA4UkwJUgGXng+6DX1zLfmoymdXo17xh5zmRJ6Q42BWCfc2oJfdAr+Yv+AP9Cb7OJ3H/2JG1HNGz/84klThPVCc=);strokeColor=none;labelBackgroundColor=none;rounded=0;html=1;whiteSpace=wrap;" parent="1" vertex="1">
          <mxGeometry x="379" y="130" width="100" height="17" as="geometry" />
        </mxCell>
        <mxCell id="uF6Eo5S9P4kP6wU4TA38-12" value="&lt;font style=&quot;font-size:14px;font-family:Lucida Sans;color:#000000;direction:ltr;letter-spacing:0px;line-height:120%;opacity:1&quot;&gt;R1 &lt;/font&gt;&lt;font style=&quot;font-size:18px;font-family:Lucida Sans;color:#000000;direction:ltr;letter-spacing:0px;line-height:120%;opacity:1&quot;&gt;â€“&lt;/font&gt;&lt;font style=&quot;font-size:14px;font-family:Lucida Sans;color:#000000;direction:ltr;letter-spacing:0px;line-height:120%;opacity:1&quot;&gt; Whys and Whos&lt;br/&gt;&lt;/font&gt;" style="verticalAlign=middle;align=center;vsdxID=17;fillColor=#dbdbdb;gradientColor=none;shape=stencil(nZBLDoAgDERP0z3SIyjew0SURgSD+Lu9kMZoXLhwN9O+tukAlrNpJg1SzDH4QW/URgNYgZTkjA4UkwJUgGXng+6DX1zLfmoymdXo17xh5zmRJ6Q42BWCfc2oJfdAr+Yv+AP9Cb7OJ3H/2JG1HNGz/84klThPVCc=);dashed=1;strokeColor=#000000;labelBackgroundColor=none;rounded=0;html=1;whiteSpace=wrap;" parent="1" vertex="1">
          <mxGeometry x="53" y="150" width="100" height="47" as="geometry" />
        </mxCell>
        <mxCell id="uF6Eo5S9P4kP6wU4TA38-13" value="&lt;font style=&quot;font-size:14px;font-family:Lucida Sans;color:#000000;direction:ltr;letter-spacing:0px;line-height:120%;opacity:1&quot;&gt;has rationale and stakeholders&lt;br/&gt;&lt;/font&gt;" style="verticalAlign=middle;align=center;vsdxID=19;fillColor=none;gradientColor=none;shape=stencil(nZBLDoAgDERP0z3SIyjew0SURgSD+Lu9kMZoXLhwN9O+tukAlrNpJg1SzDH4QW/URgNYgZTkjA4UkwJUgGXng+6DX1zLfmoymdXo17xh5zmRJ6Q42BWCfc2oJfdAr+Yv+AP9Cb7OJ3H/2JG1HNGz/84klThPVCc=);strokeColor=none;labelBackgroundColor=none;rounded=0;html=1;whiteSpace=wrap;" parent="1" vertex="1">
          <mxGeometry x="74" y="95" width="211" height="17" as="geometry" />
        </mxCell>
        <mxCell id="uF6Eo5S9P4kP6wU4TA38-15" value="" style="vsdxID=8;edgeStyle=none;startArrow=none;endArrow=block;startSize=5;endSize=5;strokeColor=#000000;spacingTop=0;spacingBottom=0;spacingLeft=0;spacingRight=0;verticalAlign=middle;html=1;labelBackgroundColor=#ffffff;rounded=0;align=center;exitX=1.0080645161290323;exitY=0.4857142857142857;exitDx=0;exitDy=0;exitPerimeter=0;entryX=0.5;entryY=0;entryDx=0;entryDy=0;entryPerimeter=0;" parent="1" source="uF6Eo5S9P4kP6wU4TA38-3" target="uF6Eo5S9P4kP6wU4TA38-2" edge="1">
          <mxGeometry relative="1" as="geometry">
            <mxPoint as="offset" />
            <Array as="points">
              <mxPoint x="515" y="152" />
            </Array>
          </mxGeometry>
        </mxCell>
        <mxCell id="uF6Eo5S9P4kP6wU4TA38-16" parent="1" vertex="1">
          <mxGeometry x="219" y="152" as="geometry" />
        </mxCell>
        <mxCell id="uF6Eo5S9P4kP6wU4TA38-18" value="" style="vsdxID=18;edgeStyle=none;startArrow=none;endArrow=block;startSize=5;endSize=5;strokeColor=#000000;spacingTop=0;spacingBottom=0;spacingLeft=0;spacingRight=0;verticalAlign=middle;html=1;labelBackgroundColor=#ffffff;rounded=0;align=center;exitX=0.5080645161290323;exitY=0;exitDx=0;exitDy=0;exitPerimeter=0;entryX=0.5;entryY=0;entryDx=0;entryDy=0;entryPerimeter=0;" parent="1" source="uF6Eo5S9P4kP6wU4TA38-3" target="uF6Eo5S9P4kP6wU4TA38-12" edge="1">
          <mxGeometry relative="1" as="geometry">
            <mxPoint x="-1" as="offset" />
            <Array as="points">
              <mxPoint x="306" y="125" />
              <mxPoint x="103" y="125" />
            </Array>
          </mxGeometry>
        </mxCell>
        <mxCell id="Zu9sKvDthpYVdea4FmNy-1" value="&lt;p style=&quot;margin-left: 0 ; margin-right: 0 ; margin-top: 0px ; margin-bottom: 0px ; text-indent: 0 ; direction: ltr&quot;&gt;&lt;font style=&quot;font-size: 14px ; font-family: &amp;#34;lucida sans&amp;#34; ; color: #000000 ; direction: ltr ; letter-spacing: 0px ; line-height: 120% ; opacity: 1&quot;&gt;&lt;b&gt;Bus [and]&lt;/b&gt;&lt;/font&gt;&lt;/p&gt;" style="verticalAlign=top;align=left;vsdxID=9;fillColor=#e4fdb0;gradientColor=none;shape=stencil(nZBLDoAgDERP0z3SIyjew0SURgSD+Lu9kMZoXLhwN9O+tukAlrNpJg1SzDH4QW/URgNYgZTkjA4UkwJUgGXng+6DX1zLfmoymdXo17xh5zmRJ6Q42BWCfc2oJfdAr+Yv+AP9Cb7OJ3H/2JG1HNGz/84klThPVCc=);strokeColor=#000000;strokeWidth=4;labelBackgroundColor=none;rounded=0;html=1;whiteSpace=wrap;" parent="1" vertex="1">
          <mxGeometry x="256" y="530" width="517" height="200" as="geometry" />
        </mxCell>
        <mxCell id="Zu9sKvDthpYVdea4FmNy-2" value="&lt;font style=&quot;font-size: 14px ; font-family: &amp;#34;lucida sans&amp;#34; ; color: #000000 ; direction: ltr ; letter-spacing: 0px ; line-height: 120% ; opacity: 1&quot;&gt;R9 - RFID travel card payment&lt;br&gt;&lt;/font&gt;" style="verticalAlign=middle;align=center;vsdxID=7;fillColor=#dbdbdb;gradientColor=none;shape=stencil(nZBLDoAgDERP0z3SIyjew0SURgSD+Lu9kMZoXLhwN9O+tukAlrNpJg1SzDH4QW/URgNYgZTkjA4UkwJUgGXng+6DX1zLfmoymdXo17xh5zmRJ6Q42BWCfc2oJfdAr+Yv+AP9Cb7OJ3H/2JG1HNGz/84klThPVCc=);dashed=1;strokeColor=#000000;labelBackgroundColor=none;rounded=0;html=1;whiteSpace=wrap;" parent="1" vertex="1">
          <mxGeometry x="266" y="557.5" width="107" height="65" as="geometry" />
        </mxCell>
        <mxCell id="Zu9sKvDthpYVdea4FmNy-3" value="&lt;font style=&quot;font-size: 14px ; font-family: &amp;#34;lucida sans&amp;#34; ; color: #000000 ; direction: ltr ; letter-spacing: 0px ; line-height: 120% ; opacity: 1&quot;&gt;R10 - Operator updates&lt;br&gt;&lt;/font&gt;" style="verticalAlign=middle;align=center;vsdxID=7;fillColor=#dbdbdb;gradientColor=none;shape=stencil(nZBLDoAgDERP0z3SIyjew0SURgSD+Lu9kMZoXLhwN9O+tukAlrNpJg1SzDH4QW/URgNYgZTkjA4UkwJUgGXng+6DX1zLfmoymdXo17xh5zmRJ6Q42BWCfc2oJfdAr+Yv+AP9Cb7OJ3H/2JG1HNGz/84klThPVCc=);dashed=1;strokeColor=#000000;labelBackgroundColor=none;rounded=0;html=1;whiteSpace=wrap;" parent="1" vertex="1">
          <mxGeometry x="379" y="557.5" width="107" height="65" as="geometry" />
        </mxCell>
        <mxCell id="Zu9sKvDthpYVdea4FmNy-4" value="&lt;font style=&quot;font-size: 14px ; font-family: &amp;#34;lucida sans&amp;#34; ; color: #000000 ; direction: ltr ; letter-spacing: 0px ; line-height: 120% ; opacity: 1&quot;&gt;R11 - Journey Announcement&lt;br&gt;&lt;/font&gt;" style="verticalAlign=middle;align=center;vsdxID=7;fillColor=#dbdbdb;gradientColor=none;shape=stencil(nZBLDoAgDERP0z3SIyjew0SURgSD+Lu9kMZoXLhwN9O+tukAlrNpJg1SzDH4QW/URgNYgZTkjA4UkwJUgGXng+6DX1zLfmoymdXo17xh5zmRJ6Q42BWCfc2oJfdAr+Yv+AP9Cb7OJ3H/2JG1HNGz/84klThPVCc=);dashed=1;strokeColor=#000000;labelBackgroundColor=none;rounded=0;html=1;whiteSpace=wrap;" parent="1" vertex="1">
          <mxGeometry x="493" y="557.5" width="107" height="65" as="geometry" />
        </mxCell>
        <mxCell id="Zu9sKvDthpYVdea4FmNy-5" value="&lt;font style=&quot;font-size: 14px ; font-family: &amp;#34;lucida sans&amp;#34; ; color: #000000 ; direction: ltr ; letter-spacing: 0px ; line-height: 120% ; opacity: 1&quot;&gt;R12 - Video Recording&lt;br&gt;&lt;/font&gt;" style="verticalAlign=middle;align=center;vsdxID=7;fillColor=#dbdbdb;gradientColor=none;shape=stencil(nZBLDoAgDERP0z3SIyjew0SURgSD+Lu9kMZoXLhwN9O+tukAlrNpJg1SzDH4QW/URgNYgZTkjA4UkwJUgGXng+6DX1zLfmoymdXo17xh5zmRJ6Q42BWCfc2oJfdAr+Yv+AP9Cb7OJ3H/2JG1HNGz/84klThPVCc=);dashed=1;strokeColor=#000000;labelBackgroundColor=none;rounded=0;html=1;whiteSpace=wrap;" parent="1" vertex="1">
          <mxGeometry x="613" y="557.5" width="107" height="65" as="geometry" />
        </mxCell>
        <mxCell id="Zu9sKvDthpYVdea4FmNy-6" value="&lt;font style=&quot;font-size: 14px ; font-family: &amp;#34;lucida sans&amp;#34; ; color: #000000 ; direction: ltr ; letter-spacing: 0px ; line-height: 120% ; opacity: 1&quot;&gt;R13 - Control centre enquiries&lt;br&gt;&lt;/font&gt;" style="verticalAlign=middle;align=center;vsdxID=7;fillColor=#dbdbdb;gradientColor=none;shape=stencil(nZBLDoAgDERP0z3SIyjew0SURgSD+Lu9kMZoXLhwN9O+tukAlrNpJg1SzDH4QW/URgNYgZTkjA4UkwJUgGXng+6DX1zLfmoymdXo17xh5zmRJ6Q42BWCfc2oJfdAr+Yv+AP9Cb7OJ3H/2JG1HNGz/84klThPVCc=);dashed=1;strokeColor=#000000;labelBackgroundColor=none;rounded=0;html=1;whiteSpace=wrap;" parent="1" vertex="1">
          <mxGeometry x="266" y="630" width="107" height="65" as="geometry" />
        </mxCell>
        <mxCell id="Zu9sKvDthpYVdea4FmNy-7" value="&lt;font style=&quot;font-size: 14px ; font-family: &amp;#34;lucida sans&amp;#34; ; color: #000000 ; direction: ltr ; letter-spacing: 0px ; line-height: 120% ; opacity: 1&quot;&gt;R14 - Control centre enquiries&lt;br&gt;&lt;/font&gt;" style="verticalAlign=middle;align=center;vsdxID=7;fillColor=#dbdbdb;gradientColor=none;shape=stencil(nZBLDoAgDERP0z3SIyjew0SURgSD+Lu9kMZoXLhwN9O+tukAlrNpJg1SzDH4QW/URgNYgZTkjA4UkwJUgGXng+6DX1zLfmoymdXo17xh5zmRJ6Q42BWCfc2oJfdAr+Yv+AP9Cb7OJ3H/2JG1HNGz/84klThPVCc=);dashed=1;strokeColor=#000000;labelBackgroundColor=none;rounded=0;html=1;whiteSpace=wrap;" parent="1" vertex="1">
          <mxGeometry x="379" y="630" width="107" height="65" as="geometry" />
        </mxCell>
        <mxCell id="joX2xTL5Aey5aDspJBR6-1" value="&lt;font style=&quot;font-size: 14px ; font-family: &amp;#34;lucida sans&amp;#34; ; color: #000000 ; direction: ltr ; letter-spacing: 0px ; line-height: 120% ; opacity: 1&quot;&gt;R2 - Add buses to system&lt;br&gt;&lt;/font&gt;" style="verticalAlign=middle;align=center;vsdxID=7;fillColor=#dbdbdb;gradientColor=none;shape=stencil(nZBLDoAgDERP0z3SIyjew0SURgSD+Lu9kMZoXLhwN9O+tukAlrNpJg1SzDH4QW/URgNYgZTkjA4UkwJUgGXng+6DX1zLfmoymdXo17xh5zmRJ6Q42BWCfc2oJfdAr+Yv+AP9Cb7OJ3H/2JG1HNGz/84klThPVCc=);dashed=1;strokeColor=#000000;labelBackgroundColor=none;rounded=0;html=1;whiteSpace=wrap;" parent="1" vertex="1">
          <mxGeometry x="266" y="230" width="107" height="65" as="geometry" />
        </mxCell>
        <mxCell id="joX2xTL5Aey5aDspJBR6-2" value="&lt;font style=&quot;font-size: 14px ; font-family: &amp;#34;lucida sans&amp;#34; ; color: #000000 ; direction: ltr ; letter-spacing: 0px ; line-height: 120% ; opacity: 1&quot;&gt;R3 - Toggle status of buses&lt;br&gt;&lt;/font&gt;" style="verticalAlign=middle;align=center;vsdxID=7;fillColor=#dbdbdb;gradientColor=none;shape=stencil(nZBLDoAgDERP0z3SIyjew0SURgSD+Lu9kMZoXLhwN9O+tukAlrNpJg1SzDH4QW/URgNYgZTkjA4UkwJUgGXng+6DX1zLfmoymdXo17xh5zmRJ6Q42BWCfc2oJfdAr+Yv+AP9Cb7OJ3H/2JG1HNGz/84klThPVCc=);dashed=1;strokeColor=#000000;labelBackgroundColor=none;rounded=0;html=1;whiteSpace=wrap;" parent="1" vertex="1">
          <mxGeometry x="379" y="230" width="107" height="65" as="geometry" />
        </mxCell>
        <mxCell id="joX2xTL5Aey5aDspJBR6-3" value="&lt;font style=&quot;font-size: 14px ; font-family: &amp;#34;lucida sans&amp;#34; ; color: #000000 ; direction: ltr ; letter-spacing: 0px ; line-height: 120% ; opacity: 1&quot;&gt;R4 - Assign drivers to buses and routes&lt;br&gt;&lt;/font&gt;" style="verticalAlign=middle;align=center;vsdxID=7;fillColor=#dbdbdb;gradientColor=none;shape=stencil(nZBLDoAgDERP0z3SIyjew0SURgSD+Lu9kMZoXLhwN9O+tukAlrNpJg1SzDH4QW/URgNYgZTkjA4UkwJUgGXng+6DX1zLfmoymdXo17xh5zmRJ6Q42BWCfc2oJfdAr+Yv+AP9Cb7OJ3H/2JG1HNGz/84klThPVCc=);dashed=1;strokeColor=#000000;labelBackgroundColor=none;rounded=0;html=1;whiteSpace=wrap;" parent="1" vertex="1">
          <mxGeometry x="493" y="230" width="107" height="65" as="geometry" />
        </mxCell>
        <mxCell id="joX2xTL5Aey5aDspJBR6-4" value="&lt;font style=&quot;font-size: 14px ; font-family: &amp;#34;lucida sans&amp;#34; ; color: #000000 ; direction: ltr ; letter-spacing: 0px ; line-height: 120% ; opacity: 1&quot;&gt;R5 - View timetable of routes&lt;br&gt;&lt;/font&gt;" style="verticalAlign=middle;align=center;vsdxID=7;fillColor=#dbdbdb;gradientColor=none;shape=stencil(nZBLDoAgDERP0z3SIyjew0SURgSD+Lu9kMZoXLhwN9O+tukAlrNpJg1SzDH4QW/URgNYgZTkjA4UkwJUgGXng+6DX1zLfmoymdXo17xh5zmRJ6Q42BWCfc2oJfdAr+Yv+AP9Cb7OJ3H/2JG1HNGz/84klThPVCc=);dashed=1;strokeColor=#000000;labelBackgroundColor=none;rounded=0;html=1;whiteSpace=wrap;" parent="1" vertex="1">
          <mxGeometry x="610" y="230" width="107" height="65" as="geometry" />
        </mxCell>
        <mxCell id="joX2xTL5Aey5aDspJBR6-6" value="&lt;font style=&quot;font-size: 14px ; font-family: &amp;#34;lucida sans&amp;#34; ; color: #000000 ; direction: ltr ; letter-spacing: 0px ; line-height: 120% ; opacity: 1&quot;&gt;R6 - View the status of bus (driver, route, location, timestamp of last stop call&lt;br&gt;&lt;/font&gt;" style="verticalAlign=middle;align=center;vsdxID=7;fillColor=#dbdbdb;gradientColor=none;shape=stencil(nZBLDoAgDERP0z3SIyjew0SURgSD+Lu9kMZoXLhwN9O+tukAlrNpJg1SzDH4QW/URgNYgZTkjA4UkwJUgGXng+6DX1zLfmoymdXo17xh5zmRJ6Q42BWCfc2oJfdAr+Yv+AP9Cb7OJ3H/2JG1HNGz/84klThPVCc=);dashed=1;strokeColor=#000000;labelBackgroundColor=none;rounded=0;html=1;whiteSpace=wrap;" parent="1" vertex="1">
          <mxGeometry x="266" y="306" width="107" height="104" as="geometry" />
        </mxCell>
        <mxCell id="joX2xTL5Aey5aDspJBR6-7" value="&lt;font style=&quot;font-size: 14px ; font-family: &amp;#34;lucida sans&amp;#34; ; color: #000000 ; direction: ltr ; letter-spacing: 0px ; line-height: 120% ; opacity: 1&quot;&gt;R7 - Send update information (journey starts, ends, malfunction)&lt;br&gt;&lt;/font&gt;" style="verticalAlign=middle;align=center;vsdxID=7;fillColor=#dbdbdb;gradientColor=none;shape=stencil(nZBLDoAgDERP0z3SIyjew0SURgSD+Lu9kMZoXLhwN9O+tukAlrNpJg1SzDH4QW/URgNYgZTkjA4UkwJUgGXng+6DX1zLfmoymdXo17xh5zmRJ6Q42BWCfc2oJfdAr+Yv+AP9Cb7OJ3H/2JG1HNGz/84klThPVCc=);dashed=1;strokeColor=#000000;labelBackgroundColor=none;rounded=0;html=1;whiteSpace=wrap;" parent="1" vertex="1">
          <mxGeometry x="379" y="306" width="107" height="104" as="geometry" />
        </mxCell>
        <mxCell id="joX2xTL5Aey5aDspJBR6-8" value="&lt;font style=&quot;font-size: 14px ; font-family: &amp;#34;lucida sans&amp;#34; ; color: #000000 ; direction: ltr ; letter-spacing: 0px ; line-height: 120% ; opacity: 1&quot;&gt;R8 - Send update information (passenger getting on/off when card scan)&lt;br&gt;&lt;/font&gt;" style="verticalAlign=middle;align=center;vsdxID=7;fillColor=#dbdbdb;gradientColor=none;shape=stencil(nZBLDoAgDERP0z3SIyjew0SURgSD+Lu9kMZoXLhwN9O+tukAlrNpJg1SzDH4QW/URgNYgZTkjA4UkwJUgGXng+6DX1zLfmoymdXo17xh5zmRJ6Q42BWCfc2oJfdAr+Yv+AP9Cb7OJ3H/2JG1HNGz/84klThPVCc=);dashed=1;strokeColor=#000000;labelBackgroundColor=none;rounded=0;html=1;whiteSpace=wrap;" parent="1" vertex="1">
          <mxGeometry x="493" y="306" width="107" height="104" as="geometry" />
        </mxCell>
      </root>
    </mxGraphModel>
  </diagram>
  <diagram id="34jaJjIzIci4-U7drNlG" name="R1">
    <mxGraphModel dx="946" dy="613" grid="1" gridSize="10" guides="1" tooltips="1" connect="1" arrows="1" fold="1" page="1" pageScale="1" pageWidth="827" pageHeight="1169" math="0" shadow="0">
      <root>
        <mxCell id="UCfj1DtLEE90rak8vcOK-0" />
        <mxCell id="UCfj1DtLEE90rak8vcOK-1" parent="UCfj1DtLEE90rak8vcOK-0" />
        <mxCell id="UCfj1DtLEE90rak8vcOK-2" value="&lt;p style=&quot;align:left;margin-left:0;margin-right:0;margin-top:0px;margin-bottom:0px;text-indent:0;valign:top;direction:ltr;&quot;&gt;&lt;font style=&quot;font-size:14px;font-family:Lucida Sans;color:#000000;direction:ltr;letter-spacing:0px;line-height:120%;opacity:1&quot;&gt;&lt;b&gt;R1 &lt;/b&gt;&lt;/font&gt;&lt;font style=&quot;font-size:14px;font-family:Lucida Sans;color:#000000;direction:ltr;letter-spacing:0px;line-height:120%;opacity:1&quot;&gt;&lt;b&gt;â€“&lt;/b&gt;&lt;/font&gt;&lt;font style=&quot;font-size:14px;font-family:Lucida Sans;color:#000000;direction:ltr;letter-spacing:0px;line-height:120%;opacity:1&quot;&gt;&lt;b&gt; Whys and whos [and]&lt;/b&gt;&lt;/font&gt;&lt;font style=&quot;font-size:14px;font-family:Lucida Sans;color:#000000;direction:ltr;letter-spacing:0px;line-height:120%;opacity:1&quot;&gt;&lt;b&gt;&lt;br/&gt;&lt;/b&gt;&lt;/font&gt;&lt;/p&gt;" style="verticalAlign=top;align=left;vsdxID=15;fillColor=#e4fdb0;gradientColor=none;shape=stencil(nZBLDoAgDERP0z3SIyjew0SURgSD+Lu9kMZoXLhwN9O+tukAlrNpJg1SzDH4QW/URgNYgZTkjA4UkwJUgGXng+6DX1zLfmoymdXo17xh5zmRJ6Q42BWCfc2oJfdAr+Yv+AP9Cb7OJ3H/2JG1HNGz/84klThPVCc=);strokeColor=#000000;strokeWidth=4;labelBackgroundColor=none;rounded=0;html=1;whiteSpace=wrap;" parent="UCfj1DtLEE90rak8vcOK-1" vertex="1">
          <mxGeometry x="112" y="140" width="548" height="400" as="geometry" />
        </mxCell>
        <mxCell id="UCfj1DtLEE90rak8vcOK-3" value="&lt;p style=&quot;align:left;margin-left:0;margin-right:0;margin-top:0px;margin-bottom:0px;text-indent:0;valign:top;direction:ltr;&quot;&gt;&lt;font style=&quot;font-size:14px;font-family:Lucida Sans;color:#000000;direction:ltr;letter-spacing:0px;line-height:120%;opacity:1&quot;&gt;&lt;b&gt;Whys [and]&lt;/b&gt;&lt;/font&gt;&lt;font style=&quot;font-size:14px;font-family:Lucida Sans;color:#000000;direction:ltr;letter-spacing:0px;line-height:120%;opacity:1&quot;&gt;&lt;b&gt;&lt;br/&gt;&lt;/b&gt;&lt;/font&gt;&lt;/p&gt;" style="verticalAlign=top;align=left;vsdxID=10;fillColor=#e4fdb0;gradientColor=none;shape=stencil(nZBLDoAgDERP0z3SIyjew0SURgSD+Lu9kMZoXLhwN9O+tukAlrNpJg1SzDH4QW/URgNYgZTkjA4UkwJUgGXng+6DX1zLfmoymdXo17xh5zmRJ6Q42BWCfc2oJfdAr+Yv+AP9Cb7OJ3H/2JG1HNGz/84klThPVCc=);strokeColor=#000000;strokeWidth=4;labelBackgroundColor=none;rounded=0;html=1;whiteSpace=wrap;" parent="UCfj1DtLEE90rak8vcOK-1" vertex="1">
          <mxGeometry x="129" y="191" width="262" height="321" as="geometry" />
        </mxCell>
        <mxCell id="UCfj1DtLEE90rak8vcOK-4" value="&lt;font style=&quot;font-size: 14px ; font-family: &amp;#34;lucida sans&amp;#34; ; color: #000000 ; direction: ltr ; letter-spacing: 0px ; line-height: 120% ; opacity: 1&quot;&gt;To improve bus service to update times and locations for bus stops along the route&lt;br&gt;&lt;/font&gt;" style="verticalAlign=middle;align=center;vsdxID=11;fillColor=#9ff7f7;gradientColor=none;shape=stencil(nZBLDoAgDERP0z3SIyjew0SURgSD+Lu9kMZoXLhwN9O+tukAlrNpJg1SzDH4QW/URgNYgZTkjA4UkwJUgGXng+6DX1zLfmoymdXo17xh5zmRJ6Q42BWCfc2oJfdAr+Yv+AP9Cb7OJ3H/2JG1HNGz/84klThPVCc=);strokeColor=#000000;labelBackgroundColor=none;rounded=0;html=1;whiteSpace=wrap;" parent="UCfj1DtLEE90rak8vcOK-1" vertex="1">
          <mxGeometry x="150" y="221" width="225" height="72" as="geometry" />
        </mxCell>
        <mxCell id="UCfj1DtLEE90rak8vcOK-5" value="&lt;font style=&quot;font-size: 14px ; font-family: &amp;#34;lucida sans&amp;#34; ; color: #000000 ; direction: ltr ; letter-spacing: 0px ; line-height: 120% ; opacity: 1&quot;&gt;So ensure security for all parties involved in using the bus&lt;br&gt;&lt;/font&gt;" style="verticalAlign=middle;align=center;vsdxID=12;fillColor=#9ff7f7;gradientColor=none;shape=stencil(nZBLDoAgDERP0z3SIyjew0SURgSD+Lu9kMZoXLhwN9O+tukAlrNpJg1SzDH4QW/URgNYgZTkjA4UkwJUgGXng+6DX1zLfmoymdXo17xh5zmRJ6Q42BWCfc2oJfdAr+Yv+AP9Cb7OJ3H/2JG1HNGz/84klThPVCc=);strokeColor=#000000;labelBackgroundColor=none;rounded=0;html=1;whiteSpace=wrap;" parent="UCfj1DtLEE90rak8vcOK-1" vertex="1">
          <mxGeometry x="151" y="301" width="168" height="72" as="geometry" />
        </mxCell>
        <mxCell id="UCfj1DtLEE90rak8vcOK-7" value="&lt;p style=&quot;align:left;margin-left:0;margin-right:0;margin-top:0px;margin-bottom:0px;text-indent:0;valign:top;direction:ltr;&quot;&gt;&lt;font style=&quot;font-size:14px;font-family:Lucida Sans;color:#000000;direction:ltr;letter-spacing:0px;line-height:120%;opacity:1&quot;&gt;&lt;b&gt;Whos [and]&lt;/b&gt;&lt;/font&gt;&lt;font style=&quot;font-size:14px;font-family:Lucida Sans;color:#000000;direction:ltr;letter-spacing:0px;line-height:120%;opacity:1&quot;&gt;&lt;b&gt;&lt;br/&gt;&lt;/b&gt;&lt;/font&gt;&lt;/p&gt;" style="verticalAlign=top;align=left;vsdxID=16;fillColor=#e4fdb0;gradientColor=none;shape=stencil(nZBLDoAgDERP0z3SIyjew0SURgSD+Lu9kMZoXLhwN9O+tukAlrNpJg1SzDH4QW/URgNYgZTkjA4UkwJUgGXng+6DX1zLfmoymdXo17xh5zmRJ6Q42BWCfc2oJfdAr+Yv+AP9Cb7OJ3H/2JG1HNGz/84klThPVCc=);strokeColor=#000000;strokeWidth=4;labelBackgroundColor=none;rounded=0;html=1;whiteSpace=wrap;" parent="UCfj1DtLEE90rak8vcOK-1" vertex="1">
          <mxGeometry x="406" y="191" width="225" height="321" as="geometry" />
        </mxCell>
        <mxCell id="UCfj1DtLEE90rak8vcOK-8" value="&lt;font style=&quot;font-size: 14px ; font-family: &amp;#34;lucida sans&amp;#34; ; color: #000000 ; direction: ltr ; letter-spacing: 0px ; line-height: 120% ; opacity: 1&quot;&gt;customers who use the bus&lt;br&gt;&lt;/font&gt;" style="verticalAlign=middle;align=center;vsdxID=17;fillColor=#9ff7f7;gradientColor=none;shape=stencil(nZBLDoAgDERP0z3SIyjew0SURgSD+Lu9kMZoXLhwN9O+tukAlrNpJg1SzDH4QW/URgNYgZTkjA4UkwJUgGXng+6DX1zLfmoymdXo17xh5zmRJ6Q42BWCfc2oJfdAr+Yv+AP9Cb7OJ3H/2JG1HNGz/84klThPVCc=);strokeColor=#000000;labelBackgroundColor=none;rounded=0;html=1;whiteSpace=wrap;" parent="UCfj1DtLEE90rak8vcOK-1" vertex="1">
          <mxGeometry x="420" y="227" width="192" height="88" as="geometry" />
        </mxCell>
        <mxCell id="UCfj1DtLEE90rak8vcOK-9" value="&lt;font style=&quot;font-size: 14px ; font-family: &amp;#34;lucida sans&amp;#34; ; color: #000000 ; direction: ltr ; letter-spacing: 0px ; line-height: 120% ; opacity: 1&quot;&gt;bus operators who drive the bus&lt;br&gt;&lt;/font&gt;" style="verticalAlign=middle;align=center;vsdxID=18;fillColor=#9ff7f7;gradientColor=none;shape=stencil(nZBLDoAgDERP0z3SIyjew0SURgSD+Lu9kMZoXLhwN9O+tukAlrNpJg1SzDH4QW/URgNYgZTkjA4UkwJUgGXng+6DX1zLfmoymdXo17xh5zmRJ6Q42BWCfc2oJfdAr+Yv+AP9Cb7OJ3H/2JG1HNGz/84klThPVCc=);strokeColor=#000000;labelBackgroundColor=none;rounded=0;html=1;whiteSpace=wrap;" parent="UCfj1DtLEE90rak8vcOK-1" vertex="1">
          <mxGeometry x="420" y="326" width="192" height="56" as="geometry" />
        </mxCell>
        <mxCell id="RFmAheWr_EYrD0mdpBJ0-0" value="&lt;font style=&quot;font-size: 14px ; font-family: &amp;#34;lucida sans&amp;#34; ; color: #000000 ; direction: ltr ; letter-spacing: 0px ; line-height: 120% ; opacity: 1&quot;&gt;Metropolis city council&amp;nbsp;&lt;br&gt;&lt;/font&gt;" style="verticalAlign=middle;align=center;vsdxID=17;fillColor=#9ff7f7;gradientColor=none;shape=stencil(nZBLDoAgDERP0z3SIyjew0SURgSD+Lu9kMZoXLhwN9O+tukAlrNpJg1SzDH4QW/URgNYgZTkjA4UkwJUgGXng+6DX1zLfmoymdXo17xh5zmRJ6Q42BWCfc2oJfdAr+Yv+AP9Cb7OJ3H/2JG1HNGz/84klThPVCc=);strokeColor=#000000;labelBackgroundColor=none;rounded=0;html=1;whiteSpace=wrap;" vertex="1" parent="UCfj1DtLEE90rak8vcOK-1">
          <mxGeometry x="420" y="390" width="192" height="88" as="geometry" />
        </mxCell>
      </root>
    </mxGraphModel>
  </diagram>
  <diagram id="gaKjTVYIC88flwhcWgM2" name="R2">
    <mxGraphModel dx="1073" dy="885" grid="1" gridSize="10" guides="1" tooltips="1" connect="1" arrows="1" fold="1" page="1" pageScale="1" pageWidth="827" pageHeight="1169" math="0" shadow="0">
      <root>
        <mxCell id="jhJx6zmsLhnmt3HOb2pq-0" />
        <mxCell id="jhJx6zmsLhnmt3HOb2pq-1" parent="jhJx6zmsLhnmt3HOb2pq-0" />
        <mxCell id="9g56aClEisrgreMNVBdK-1" value="&lt;p style=&quot;margin-left: 0 ; margin-right: 0 ; margin-top: 0px ; margin-bottom: 0px ; text-indent: 0 ; direction: ltr&quot;&gt;&lt;font style=&quot;font-size: 14px ; font-family: &amp;#34;lucida sans&amp;#34; ; color: #000000 ; direction: ltr ; letter-spacing: 0px ; line-height: 120% ; opacity: 1&quot;&gt;&lt;span style=&quot;text-align: center&quot;&gt;R2 - RFID travel card payment&lt;/span&gt;&lt;b&gt;&lt;br&gt;&lt;/b&gt;&lt;/font&gt;&lt;/p&gt;" style="verticalAlign=top;align=left;vsdxID=1;fillColor=#e4fdb0;gradientColor=none;shape=stencil(nZBLDoAgDERP0z3SIyjew0SURgSD+Lu9kMZoXLhwN9O+tukAlrNpJg1SzDH4QW/URgNYgZTkjA4UkwJUgGXng+6DX1zLfmoymdXo17xh5zmRJ6Q42BWCfc2oJfdAr+Yv+AP9Cb7OJ3H/2JG1HNGz/84klThPVCc=);strokeColor=#000000;strokeWidth=4;labelBackgroundColor=none;rounded=0;html=1;whiteSpace=wrap;" vertex="1" parent="jhJx6zmsLhnmt3HOb2pq-1">
          <mxGeometry x="33" y="54" width="780" height="540" as="geometry" />
        </mxCell>
        <mxCell id="6OlRjhTWc3IPwcVheuZv-2" style="edgeStyle=orthogonalEdgeStyle;rounded=0;orthogonalLoop=1;jettySize=auto;html=1;" edge="1" parent="jhJx6zmsLhnmt3HOb2pq-1" source="QWJ87fH-ZljLXJd0E1-E-0" target="6OlRjhTWc3IPwcVheuZv-0">
          <mxGeometry relative="1" as="geometry" />
        </mxCell>
        <mxCell id="QWJ87fH-ZljLXJd0E1-E-0" value="&lt;font style=&quot;font-size: 14px ; font-family: &amp;#34;lucida sans&amp;#34; ; color: #000000 ; direction: ltr ; letter-spacing: 0px ; line-height: 120% ; opacity: 1&quot;&gt;R2 - RFID travel card payment&lt;br&gt;&lt;/font&gt;" style="verticalAlign=middle;align=center;vsdxID=7;fillColor=#dbdbdb;gradientColor=none;shape=stencil(nZBLDoAgDERP0z3SIyjew0SURgSD+Lu9kMZoXLhwN9O+tukAlrNpJg1SzDH4QW/URgNYgZTkjA4UkwJUgGXng+6DX1zLfmoymdXo17xh5zmRJ6Q42BWCfc2oJfdAr+Yv+AP9Cb7OJ3H/2JG1HNGz/84klThPVCc=);dashed=1;strokeColor=#000000;labelBackgroundColor=none;rounded=0;html=1;whiteSpace=wrap;" vertex="1" parent="jhJx6zmsLhnmt3HOb2pq-1">
          <mxGeometry x="50" y="90" width="107" height="65" as="geometry" />
        </mxCell>
        <mxCell id="6OlRjhTWc3IPwcVheuZv-0" value="&lt;font style=&quot;font-family: &amp;#34;lucida sans&amp;#34; ; color: rgb(0 , 0 , 0) ; direction: ltr ; letter-spacing: 0px ; line-height: 120% ; opacity: 1&quot;&gt;&lt;font style=&quot;font-size: 12px&quot;&gt;Passenger scans card when getting on&lt;/font&gt;&lt;br&gt;&lt;/font&gt;" style="verticalAlign=middle;align=center;vsdxID=3;fillColor=#7effff;gradientColor=none;shape=stencil(nZBLDoAgDERP0z3SIyjew0SURgSD+Lu9kMZoXLhwN9O+tukAlrNpJg1SzDH4QW/URgNYgZTkjA4UkwJUgGXng+6DX1zLfmoymdXo17xh5zmRJ6Q42BWCfc2oJfdAr+Yv+AP9Cb7OJ3H/2JG1HNGz/84klThPVCc=);strokeColor=#000000;labelBackgroundColor=none;rounded=0;html=1;whiteSpace=wrap;" vertex="1" parent="jhJx6zmsLhnmt3HOb2pq-1">
          <mxGeometry x="48" y="210" width="111" height="60" as="geometry" />
        </mxCell>
        <mxCell id="6OlRjhTWc3IPwcVheuZv-3" style="edgeStyle=orthogonalEdgeStyle;rounded=0;orthogonalLoop=1;jettySize=auto;html=1;" edge="1" parent="jhJx6zmsLhnmt3HOb2pq-1" source="6OlRjhTWc3IPwcVheuZv-1" target="QWJ87fH-ZljLXJd0E1-E-0">
          <mxGeometry relative="1" as="geometry" />
        </mxCell>
        <mxCell id="6OlRjhTWc3IPwcVheuZv-1" value="&lt;font style=&quot;font-family: &amp;#34;lucida sans&amp;#34; ; color: rgb(0 , 0 , 0) ; direction: ltr ; letter-spacing: 0px ; line-height: 120% ; opacity: 1&quot;&gt;&lt;font style=&quot;font-size: 12px&quot;&gt;Passenger scans card when getting off&lt;/font&gt;&lt;br&gt;&lt;/font&gt;" style="verticalAlign=middle;align=center;vsdxID=3;fillColor=#7effff;gradientColor=none;shape=stencil(nZBLDoAgDERP0z3SIyjew0SURgSD+Lu9kMZoXLhwN9O+tukAlrNpJg1SzDH4QW/URgNYgZTkjA4UkwJUgGXng+6DX1zLfmoymdXo17xh5zmRJ6Q42BWCfc2oJfdAr+Yv+AP9Cb7OJ3H/2JG1HNGz/84klThPVCc=);strokeColor=#000000;labelBackgroundColor=none;rounded=0;html=1;whiteSpace=wrap;" vertex="1" parent="jhJx6zmsLhnmt3HOb2pq-1">
          <mxGeometry x="410" y="92.5" width="111" height="60" as="geometry" />
        </mxCell>
        <mxCell id="6OlRjhTWc3IPwcVheuZv-4" value="&lt;font style=&quot;font-family: &amp;#34;lucida sans&amp;#34; ; color: rgb(0 , 0 , 0) ; direction: ltr ; letter-spacing: 0px ; line-height: 120% ; opacity: 1&quot;&gt;Journey&lt;br&gt;&lt;/font&gt;" style="verticalAlign=middle;align=center;vsdxID=3;fillColor=#7effff;gradientColor=none;shape=stencil(nZBLDoAgDERP0z3SIyjew0SURgSD+Lu9kMZoXLhwN9O+tukAlrNpJg1SzDH4QW/URgNYgZTkjA4UkwJUgGXng+6DX1zLfmoymdXo17xh5zmRJ6Q42BWCfc2oJfdAr+Yv+AP9Cb7OJ3H/2JG1HNGz/84klThPVCc=);strokeColor=#000000;labelBackgroundColor=none;rounded=0;html=1;whiteSpace=wrap;" vertex="1" parent="jhJx6zmsLhnmt3HOb2pq-1">
          <mxGeometry x="242" y="210" width="111" height="60" as="geometry" />
        </mxCell>
      </root>
    </mxGraphModel>
  </diagram>
  <diagram id="9L1CzygqCNbajA_hSQRv" name="Legend">
    <mxGraphModel dx="946" dy="613" grid="1" gridSize="10" guides="1" tooltips="1" connect="1" arrows="1" fold="1" page="1" pageScale="1" pageWidth="827" pageHeight="1169" math="0" shadow="0">
      <root>
        <mxCell id="PoRICTuZV8FbE2wN6WSI-0" />
        <mxCell id="PoRICTuZV8FbE2wN6WSI-1" parent="PoRICTuZV8FbE2wN6WSI-0" />
        <mxCell id="PoRICTuZV8FbE2wN6WSI-2" style="vsdxID=1;fillColor=#ffffff;gradientColor=none;shape=stencil(nZBLDoAgDERP0z3SIyjew0SURgSD+Lu9kMZoXLhwN9O+tukAlrNpJg1SzDH4QW/URgNYgZTkjA4UkwJUgGXng+6DX1zLfmoymdXo17xh5zmRJ6Q42BWCfc2oJfdAr+Yv+AP9Cb7OJ3H/2JG1HNGz/84klThPVCc=);strokeColor=#000000;labelBackgroundColor=none;rounded=0;html=1;whiteSpace=wrap;" parent="PoRICTuZV8FbE2wN6WSI-1" vertex="1">
          <mxGeometry x="68" y="80" width="572" height="180" as="geometry" />
        </mxCell>
        <mxCell id="PoRICTuZV8FbE2wN6WSI-3" value="&lt;font style=&quot;font-size:16px;font-family:Lucida Sans;color:#000000;direction:ltr;letter-spacing:0px;line-height:120%;opacity:1&quot;&gt;Proxy&lt;br/&gt;&lt;/font&gt;" style="verticalAlign=middle;align=center;vsdxID=2;fillColor=#d8d8d8;gradientColor=none;shape=stencil(nZBLDoAgDERP0z3SIyjew0SURgSD+Lu9kMZoXLhwN9O+tukAlrNpJg1SzDH4QW/URgNYgZTkjA4UkwJUgGXng+6DX1zLfmoymdXo17xh5zmRJ6Q42BWCfc2oJfdAr+Yv+AP9Cb7OJ3H/2JG1HNGz/84klThPVCc=);dashed=1;strokeColor=#000000;labelBackgroundColor=none;rounded=0;html=1;whiteSpace=wrap;" parent="PoRICTuZV8FbE2wN6WSI-1" vertex="1">
          <mxGeometry x="92" y="100" width="118" height="60" as="geometry" />
        </mxCell>
        <mxCell id="PoRICTuZV8FbE2wN6WSI-4" value="&lt;font style=&quot;font-size:16px;font-family:Lucida Sans;color:#000000;direction:ltr;letter-spacing:0px;line-height:120%;opacity:1&quot;&gt;Atom&lt;br/&gt;&lt;/font&gt;" style="verticalAlign=middle;align=center;vsdxID=3;fillColor=#7effff;gradientColor=none;shape=stencil(nZBLDoAgDERP0z3SIyjew0SURgSD+Lu9kMZoXLhwN9O+tukAlrNpJg1SzDH4QW/URgNYgZTkjA4UkwJUgGXng+6DX1zLfmoymdXo17xh5zmRJ6Q42BWCfc2oJfdAr+Yv+AP9Cb7OJ3H/2JG1HNGz/84klThPVCc=);strokeColor=#000000;labelBackgroundColor=none;rounded=0;html=1;whiteSpace=wrap;" parent="PoRICTuZV8FbE2wN6WSI-1" vertex="1">
          <mxGeometry x="88" y="180" width="111" height="60" as="geometry" />
        </mxCell>
        <mxCell id="PoRICTuZV8FbE2wN6WSI-5" value="&lt;font style=&quot;font-size:16px;font-family:Lucida Sans;color:#000000;direction:ltr;letter-spacing:0px;line-height:120%;opacity:1&quot;&gt;Proxy node&lt;br/&gt;&lt;/font&gt;" style="verticalAlign=middle;align=center;vsdxID=4;fillColor=none;gradientColor=none;shape=stencil(nZBLDoAgDERP0z3SIyjew0SURgSD+Lu9kMZoXLhwN9O+tukAlrNpJg1SzDH4QW/URgNYgZTkjA4UkwJUgGXng+6DX1zLfmoymdXo17xh5zmRJ6Q42BWCfc2oJfdAr+Yv+AP9Cb7OJ3H/2JG1HNGz/84klThPVCc=);strokeColor=none;labelBackgroundColor=none;rounded=0;html=1;whiteSpace=wrap;" parent="PoRICTuZV8FbE2wN6WSI-1" vertex="1">
          <mxGeometry x="228" y="115" width="111" height="28" as="geometry" />
        </mxCell>
        <mxCell id="PoRICTuZV8FbE2wN6WSI-6" value="&lt;font style=&quot;font-size:16px;font-family:Lucida Sans;color:#000000;direction:ltr;letter-spacing:0px;line-height:120%;opacity:1&quot;&gt;Atomic node&lt;br/&gt;&lt;/font&gt;" style="verticalAlign=middle;align=center;vsdxID=5;fillColor=none;gradientColor=none;shape=stencil(nZBLDoAgDERP0z3SIyjew0SURgSD+Lu9kMZoXLhwN9O+tukAlrNpJg1SzDH4QW/URgNYgZTkjA4UkwJUgGXng+6DX1zLfmoymdXo17xh5zmRJ6Q42BWCfc2oJfdAr+Yv+AP9Cb7OJ3H/2JG1HNGz/84klThPVCc=);strokeColor=none;labelBackgroundColor=none;rounded=0;html=1;whiteSpace=wrap;" parent="PoRICTuZV8FbE2wN6WSI-1" vertex="1">
          <mxGeometry x="232" y="205" width="118" height="28" as="geometry" />
        </mxCell>
        <mxCell id="PoRICTuZV8FbE2wN6WSI-7" value="&lt;p style=&quot;align:left;margin-left:0;margin-right:0;margin-top:0px;margin-bottom:0px;text-indent:0;valign:top;direction:ltr;&quot;&gt;&lt;font style=&quot;font-size:16px;font-family:Lucida Sans;color:#000000;direction:ltr;letter-spacing:0px;line-height:120%;opacity:1&quot;&gt;Chunk&lt;/font&gt;&lt;font style=&quot;font-size:16px;font-family:Lucida Sans;color:#000000;direction:ltr;letter-spacing:0px;line-height:120%;opacity:1&quot;&gt;&lt;b&gt;&lt;br/&gt;&lt;/b&gt;&lt;/font&gt;&lt;/p&gt;" style="verticalAlign=top;align=left;vsdxID=6;fillColor=#edfecb;gradientColor=none;shape=stencil(nZBLDoAgDERP0z3SIyjew0SURgSD+Lu9kMZoXLhwN9O+tukAlrNpJg1SzDH4QW/URgNYgZTkjA4UkwJUgGXng+6DX1zLfmoymdXo17xh5zmRJ6Q42BWCfc2oJfdAr+Yv+AP9Cb7OJ3H/2JG1HNGz/84klThPVCc=);strokeColor=#000000;strokeWidth=3;labelBackgroundColor=none;rounded=0;html=1;whiteSpace=wrap;" parent="PoRICTuZV8FbE2wN6WSI-1" vertex="1">
          <mxGeometry x="360" y="99" width="110" height="60" as="geometry" />
        </mxCell>
        <mxCell id="PoRICTuZV8FbE2wN6WSI-8" value="&lt;font style=&quot;font-size:16px;font-family:Lucida Sans;color:#000000;direction:ltr;letter-spacing:0px;line-height:120%;opacity:1&quot;&gt;Chunk node&lt;br/&gt;&lt;/font&gt;" style="verticalAlign=middle;align=center;vsdxID=7;fillColor=none;gradientColor=none;shape=stencil(nZBLDoAgDERP0z3SIyjew0SURgSD+Lu9kMZoXLhwN9O+tukAlrNpJg1SzDH4QW/URgNYgZTkjA4UkwJUgGXng+6DX1zLfmoymdXo17xh5zmRJ6Q42BWCfc2oJfdAr+Yv+AP9Cb7OJ3H/2JG1HNGz/84klThPVCc=);strokeColor=none;labelBackgroundColor=none;rounded=0;html=1;whiteSpace=wrap;" parent="PoRICTuZV8FbE2wN6WSI-1" vertex="1">
          <mxGeometry x="492" y="110" width="118" height="28" as="geometry" />
        </mxCell>
        <mxCell id="PoRICTuZV8FbE2wN6WSI-9" style="vsdxID=8;edgeStyle=none;startArrow=ERmany;endArrow=classic;startSize=5;endSize=5;strokeColor=#000000;spacingTop=0;spacingBottom=0;spacingLeft=0;spacingRight=0;verticalAlign=middle;html=1;labelBackgroundColor=#ffffff;rounded=0;strokeWidth=3;endFill=1;startFill=0;" parent="PoRICTuZV8FbE2wN6WSI-1" edge="1">
          <mxGeometry relative="1" as="geometry">
            <mxPoint x="-1" as="offset" />
            <Array as="points" />
            <mxPoint x="360" y="184" as="sourcePoint" />
            <mxPoint x="469" y="184" as="targetPoint" />
          </mxGeometry>
        </mxCell>
        <mxCell id="PoRICTuZV8FbE2wN6WSI-10" value="" style="vsdxID=12;edgeStyle=none;startArrow=none;endArrow=block;startSize=5;endSize=5;strokeColor=#000000;spacingTop=0;spacingBottom=0;spacingLeft=0;spacingRight=0;verticalAlign=middle;html=1;labelBackgroundColor=#ffffff;rounded=0;align=center;endFill=1;" parent="PoRICTuZV8FbE2wN6WSI-1" edge="1">
          <mxGeometry relative="1" as="geometry">
            <mxPoint as="offset" />
            <Array as="points" />
            <mxPoint x="371" y="233" as="sourcePoint" />
            <mxPoint x="471" y="233" as="targetPoint" />
          </mxGeometry>
        </mxCell>
        <mxCell id="PoRICTuZV8FbE2wN6WSI-11" value="&lt;font style=&quot;font-size:16px;font-family:Lucida Sans;color:#000000;direction:ltr;letter-spacing:0px;line-height:120%;opacity:1&quot;&gt;Followed by&lt;br/&gt;&lt;/font&gt;" style="verticalAlign=middle;align=center;vsdxID=9;fillColor=none;gradientColor=none;shape=stencil(nZBLDoAgDERP0z3SIyjew0SURgSD+Lu9kMZoXLhwN9O+tukAlrNpJg1SzDH4QW/URgNYgZTkjA4UkwJUgGXng+6DX1zLfmoymdXo17xh5zmRJ6Q42BWCfc2oJfdAr+Yv+AP9Cb7OJ3H/2JG1HNGz/84klThPVCc=);strokeColor=none;labelBackgroundColor=none;rounded=0;html=1;whiteSpace=wrap;" parent="PoRICTuZV8FbE2wN6WSI-1" vertex="1">
          <mxGeometry x="498" y="170" width="118" height="28" as="geometry" />
        </mxCell>
        <mxCell id="PoRICTuZV8FbE2wN6WSI-12" value="&lt;font style=&quot;font-size:16px;font-family:Lucida Sans;color:#000000;direction:ltr;letter-spacing:0px;line-height:120%;opacity:1&quot;&gt;Related to&lt;br/&gt;&lt;/font&gt;" style="verticalAlign=middle;align=center;vsdxID=13;fillColor=none;gradientColor=none;shape=stencil(nZBLDoAgDERP0z3SIyjew0SURgSD+Lu9kMZoXLhwN9O+tukAlrNpJg1SzDH4QW/URgNYgZTkjA4UkwJUgGXng+6DX1zLfmoymdXo17xh5zmRJ6Q42BWCfc2oJfdAr+Yv+AP9Cb7OJ3H/2JG1HNGz/84klThPVCc=);strokeColor=none;labelBackgroundColor=none;rounded=0;html=1;whiteSpace=wrap;" parent="PoRICTuZV8FbE2wN6WSI-1" vertex="1">
          <mxGeometry x="492" y="218" width="118" height="28" as="geometry" />
        </mxCell>
        <mxCell id="PoRICTuZV8FbE2wN6WSI-13" value="&lt;font style=&quot;font-size:16px;font-family:Lucida Sans;color:#000000;direction:ltr;letter-spacing:0px;line-height:120%;opacity:1&quot;&gt;Linking phrase&lt;br/&gt;&lt;/font&gt;" style="verticalAlign=middle;align=center;vsdxID=14;fillColor=none;gradientColor=none;shape=stencil(nZBLDoAgDERP0z3SIyjew0SURgSD+Lu9kMZoXLhwN9O+tukAlrNpJg1SzDH4QW/URgNYgZTkjA4UkwJUgGXng+6DX1zLfmoymdXo17xh5zmRJ6Q42BWCfc2oJfdAr+Yv+AP9Cb7OJ3H/2JG1HNGz/84klThPVCc=);strokeColor=none;labelBackgroundColor=none;rounded=0;html=1;whiteSpace=wrap;" parent="PoRICTuZV8FbE2wN6WSI-1" vertex="1">
          <mxGeometry x="360" y="198" width="138" height="28" as="geometry" />
        </mxCell>
        <mxCell id="PoRICTuZV8FbE2wN6WSI-14" value="&lt;font style=&quot;font-size:19px;font-family:Lucida Sans;color:#000000;direction:ltr;letter-spacing:0px;line-height:120%;opacity:1&quot;&gt;&lt;b&gt;Legend&lt;br/&gt;&lt;/b&gt;&lt;/font&gt;" style="verticalAlign=middle;align=center;vsdxID=15;fillColor=#ffffff;gradientColor=none;shape=stencil(nZBLDoAgDERP0z3SIyjew0SURgSD+Lu9kMZoXLhwN9O+tukAlrNpJg1SzDH4QW/URgNYgZTkjA4UkwJUgGXng+6DX1zLfmoymdXo17xh5zmRJ6Q42BWCfc2oJfdAr+Yv+AP9Cb7OJ3H/2JG1HNGz/84klThPVCc=);strokeColor=none;labelBackgroundColor=none;rounded=0;html=1;whiteSpace=wrap;" parent="PoRICTuZV8FbE2wN6WSI-1" vertex="1">
          <mxGeometry x="88" y="60" width="92" height="28" as="geometry" />
        </mxCell>
      </root>
    </mxGraphModel>
  </diagram>
</mxfile>
